STARTFONT 2.1
COMMENT
COMMENT Converted from TrueType font "albas.ttf" by "ttf2bdf 2.6".
COMMENT
FONT -FreeType-Alba Super-Medium-R-Normal--19-140-100-100-P-126-ISO10646-1
SIZE 14 100 100
FONTBOUNDINGBOX 29 39 -3 -14
STARTPROPERTIES 20
FOUNDRY "FreeType"
FAMILY_NAME "Alba Super"
WEIGHT_NAME "Medium"
SLANT "R"
SETWIDTH_NAME "Normal"
ADD_STYLE_NAME ""
PIXEL_SIZE 19
POINT_SIZE 140
RESOLUTION_X 100
RESOLUTION_Y 100
SPACING "P"
AVERAGE_WIDTH 126
CHARSET_REGISTRY "ISO10646"
CHARSET_ENCODING "1"
FONT_ASCENT 19
FONT_DESCENT 10
COPYRIGHT "Alba ©2001, Font"a"licious Fonts."
_TTF_FONTFILE "albas.ttf"
_TTF_PSNAME "AlbaSuper"
_XFREE86_GLYPH_RANGES "32_126 161_165 167_172 174_177 180_184 186_187 191_214 216_252 254_255 305 321_322 338_339 352_353 376 381_382 402 710_711 713 728_733 916 937 956 960 8208 8211_8212 8216_8218 8220_8222 8224_8226 8230 8240 8249_8250 8260 8482 8486 8706 8710 8719 8721 8729_8730 8734 8747 8776 8800 8804_8805 8946 9674 61441_61442"
ENDPROPERTIES
CHARS 239
STARTCHAR 0020
ENCODING 32
SWIDTH 308 0
DWIDTH 6 0
BBX 1 1 0 0
BITMAP
00
ENDCHAR
STARTCHAR 0021
ENCODING 33
SWIDTH 205 0
DWIDTH 4 0
BBX 6 18 0 -3
BITMAP
70
98
88
88
88
88
88
88
88
88
98
F8
88
84
8C
FC
F8
70
ENDCHAR
STARTCHAR 0022
ENCODING 34
SWIDTH 462 0
DWIDTH 9 0
BBX 10 10 0 5
BITMAP
7F80
8CC0
8840
8840
8840
8840
8CC0
FFC0
FFC0
7F80
ENDCHAR
STARTCHAR 0023
ENCODING 35
SWIDTH 565 0
DWIDTH 11 0
BBX 12 14 0 1
BITMAP
1F80
2440
C020
8010
8010
E470
C030
8010
8010
C010
E470
7FF0
3FC0
1F80
ENDCHAR
STARTCHAR 0024
ENCODING 36
SWIDTH 462 0
DWIDTH 9 0
BBX 10 18 0 -3
BITMAP
1C00
1200
1380
1C40
1840
10C0
11C0
11C0
1180
7100
C100
8300
8600
FA00
F200
7E00
1E00
0C00
ENDCHAR
STARTCHAR 0025
ENCODING 37
SWIDTH 720 0
DWIDTH 14 0
BBX 15 21 0 -5
BITMAP
0070
3C88
4708
8318
9B18
9A38
DE30
FE30
7C60
3C78
0444
089A
089A
199A
11C6
11FE
23FC
2378
3F00
3E00
1E00
ENDCHAR
STARTCHAR 0026
ENCODING 38
SWIDTH 822 0
DWIDTH 16 0
BBX 17 11 0 1
BITMAP
000380
000280
3DEE80
463280
9AE280
9AE680
8AE680
CAF180
FFFF80
7FFF00
3F6E00
ENDCHAR
STARTCHAR 0027
ENCODING 39
SWIDTH 257 0
DWIDTH 5 0
BBX 6 10 0 5
BITMAP
78
CC
84
84
84
84
CC
FC
FC
78
ENDCHAR
STARTCHAR 0028
ENCODING 40
SWIDTH 514 0
DWIDTH 10 0
BBX 11 21 0 -5
BITMAP
07C0
1C20
3020
6020
43E0
87E0
8FC0
8C00
8800
8800
8800
8800
8800
8400
C3C0
E020
7020
7C20
3FE0
1FE0
07C0
ENDCHAR
STARTCHAR 0029
ENCODING 41
SWIDTH 514 0
DWIDTH 10 0
BBX 11 21 0 -5
BITMAP
7C00
8700
8180
80C0
F840
FC20
7E20
0620
0220
0220
0220
0220
0220
0420
7860
80E0
81C0
87C0
FF80
FF00
7C00
ENDCHAR
STARTCHAR 002A
ENCODING 42
SWIDTH 462 0
DWIDTH 9 0
BBX 10 12 0 -2
BITMAP
0C00
1600
7300
C0C0
8040
C0C0
C1C0
C080
4C80
7F80
7F80
3300
ENDCHAR
STARTCHAR 002B
ENCODING 43
SWIDTH 462 0
DWIDTH 9 0
BBX 10 12 0 -2
BITMAP
1E00
1200
3300
C0C0
8040
8040
F3C0
F3C0
F3C0
3F00
1E00
1E00
ENDCHAR
STARTCHAR 002C
ENCODING 44
SWIDTH 257 0
DWIDTH 5 0
BBX 6 10 0 -6
BITMAP
78
CC
84
84
84
84
CC
FC
FC
78
ENDCHAR
STARTCHAR 002D
ENCODING 45
SWIDTH 257 0
DWIDTH 5 0
BBX 6 8 0 1
BITMAP
78
CC
84
84
CC
FC
FC
78
ENDCHAR
STARTCHAR 002E
ENCODING 46
SWIDTH 257 0
DWIDTH 5 0
BBX 6 7 0 -3
BITMAP
78
CC
84
44
FC
FC
78
ENDCHAR
STARTCHAR 002F
ENCODING 47
SWIDTH 462 0
DWIDTH 9 0
BBX 10 21 0 -5
BITMAP
0380
0480
0440
08C0
08C0
19C0
1180
1180
2380
2300
2300
4700
4600
4600
8C00
8C00
8C00
9800
F800
F800
7000
ENDCHAR
STARTCHAR 0030
ENCODING 48
SWIDTH 771 0
DWIDTH 15 0
BBX 16 18 0 -3
BITMAP
07E0
1818
300C
6006
43C2
87E1
8FF1
8C31
8819
8811
8811
C423
E3C7
700E
781E
3FFC
1FF8
07E0
ENDCHAR
STARTCHAR 0031
ENCODING 49
SWIDTH 205 0
DWIDTH 4 0
BBX 5 18 0 -3
BITMAP
70
88
88
88
88
88
88
88
88
88
88
88
88
88
88
F8
F8
70
ENDCHAR
STARTCHAR 0032
ENCODING 50
SWIDTH 565 0
DWIDTH 11 0
BBX 13 18 0 -3
BITMAP
0F80
3060
4030
C010
8708
8F88
8F88
D908
FA18
FC38
3870
60E0
C1F8
8008
8010
FFF8
FFF8
7FF0
ENDCHAR
STARTCHAR 0033
ENCODING 51
SWIDTH 514 0
DWIDTH 10 0
BBX 11 18 0 -3
BITMAP
1F00
2080
4040
8020
8E20
8E20
9C20
F060
F040
7840
1E20
1E20
7C20
8060
80E0
FFC0
FF80
7F00
ENDCHAR
STARTCHAR 0034
ENCODING 52
SWIDTH 514 0
DWIDTH 10 0
BBX 11 18 0 -3
BITMAP
71C0
8A20
8A20
8A20
8A20
8A20
8A20
8E20
8020
C020
E020
7E20
3E20
1E20
0220
03E0
03E0
01C0
ENDCHAR
STARTCHAR 0035
ENCODING 53
SWIDTH 514 0
DWIDTH 10 0
BBX 11 18 0 -3
BITMAP
7FC0
8020
8020
8020
8FE0
81E0
8040
8060
FC20
FE20
7E20
0620
7C60
8060
81C0
FFC0
FF80
7E00
ENDCHAR
STARTCHAR 0036
ENCODING 54
SWIDTH 617 0
DWIDTH 12 0
BBX 12 18 0 -3
BITMAP
1F00
30C0
4060
4020
8720
80E0
8020
8030
8710
8F90
8F90
8F90
C730
C030
70E0
7FE0
3FC0
0F00
ENDCHAR
STARTCHAR 0037
ENCODING 55
SWIDTH 514 0
DWIDTH 10 0
BBX 11 18 0 -3
BITMAP
7FC0
8020
8020
8020
FC20
FC60
7C60
0840
08C0
08C0
19C0
1180
1180
2380
2300
3F00
3F00
1E00
ENDCHAR
STARTCHAR 0038
ENCODING 56
SWIDTH 514 0
DWIDTH 10 0
BBX 11 18 0 -3
BITMAP
1F00
2080
4040
8020
8620
8E20
C620
E060
C060
8020
8E20
8E20
8E20
C060
E0E0
7FC0
3F80
1F00
ENDCHAR
STARTCHAR 0039
ENCODING 57
SWIDTH 617 0
DWIDTH 12 0
BBX 13 18 0 -3
BITMAP
0F80
3060
6030
4010
8708
8F88
8F88
8F88
8708
C008
6008
7088
4F18
4038
7070
7FF0
3FE0
0F80
ENDCHAR
STARTCHAR 003A
ENCODING 58
SWIDTH 257 0
DWIDTH 5 0
BBX 6 12 0 -3
BITMAP
78
CC
84
84
CC
FC
CC
84
C4
FC
FC
78
ENDCHAR
STARTCHAR 003B
ENCODING 59
SWIDTH 257 0
DWIDTH 5 0
BBX 6 15 0 -6
BITMAP
78
CC
84
84
CC
FC
C8
84
84
84
84
CC
FC
FC
78
ENDCHAR
STARTCHAR 003C
ENCODING 60
SWIDTH 308 0
DWIDTH 6 0
BBX 7 11 0 -2
BITMAP
1C
22
42
86
8E
86
C2
E2
7E
3E
1C
ENDCHAR
STARTCHAR 003D
ENCODING 61
SWIDTH 462 0
DWIDTH 9 0
BBX 10 11 0 -2
BITMAP
7F80
8040
8040
FFC0
8040
8040
8040
8040
FFC0
FFC0
7F80
ENDCHAR
STARTCHAR 003E
ENCODING 62
SWIDTH 308 0
DWIDTH 6 0
BBX 7 11 0 -2
BITMAP
70
88
84
C2
E2
C2
86
8E
FC
F8
70
ENDCHAR
STARTCHAR 003F
ENCODING 63
SWIDTH 565 0
DWIDTH 11 0
BBX 12 18 0 -3
BITMAP
0F00
30C0
4020
4020
8710
8F90
8F90
DF10
F030
E030
30F0
3FE0
23C0
2380
2300
3F00
3F00
1E00
ENDCHAR
STARTCHAR 0040
ENCODING 64
SWIDTH 822 0
DWIDTH 16 0
BBX 16 18 0 -3
BITMAP
07E0
1818
300C
6006
43E2
8631
8C19
89C9
89C9
89C9
8C41
C443
E3C7
700E
781E
3FFC
1FF8
07E0
ENDCHAR
STARTCHAR 0041
ENCODING 65
SWIDTH 617 0
DWIDTH 12 0
BBX 15 23 0 -8
BITMAP
0F00
30C0
4020
4020
8710
8F90
8F90
8F90
8C10
8810
8810
8F90
8F90
8F90
8890
F890
F89C
7082
00C2
00E2
007E
007E
001C
ENDCHAR
STARTCHAR 0042
ENCODING 66
SWIDTH 514 0
DWIDTH 10 0
BBX 11 18 0 -3
BITMAP
1F00
2080
4040
8020
8E20
8E20
8C20
9060
9040
8C40
8E20
8E20
8820
9060
90E0
FFC0
FF80
7F00
ENDCHAR
STARTCHAR 0043
ENCODING 67
SWIDTH 514 0
DWIDTH 10 0
BBX 11 18 0 -3
BITMAP
07C0
1C20
3020
6060
43E0
87E0
8FC0
8C00
8800
8800
8400
C3C0
E060
7020
7C20
3FE0
1FE0
07C0
ENDCHAR
STARTCHAR 0044
ENCODING 68
SWIDTH 668 0
DWIDTH 13 0
BBX 14 18 0 -3
BITMAP
7F80
80E0
8030
8018
8F08
8F84
8FC4
89C4
8844
8844
8844
898C
8F1C
8818
8878
FFF0
FFE0
7F80
ENDCHAR
STARTCHAR 0045
ENCODING 69
SWIDTH 514 0
DWIDTH 10 0
BBX 11 18 0 -3
BITMAP
07C0
1C20
3020
6020
43E0
87E0
8FC0
8020
8020
8020
8FE0
C7C0
E3E0
7020
7C20
3FE0
1FE0
07C0
ENDCHAR
STARTCHAR 0046
ENCODING 70
SWIDTH 462 0
DWIDTH 9 0
BBX 10 18 0 -3
BITMAP
1F80
2040
4040
8040
8FC0
8FC0
8F80
8040
8040
8040
8FC0
8FC0
8F80
8800
8800
F800
F800
7000
ENDCHAR
STARTCHAR 0047
ENCODING 71
SWIDTH 771 0
DWIDTH 15 0
BBX 16 18 0 -3
BITMAP
07E0
1818
3004
6002
43C2
87F2
8FFF
8D01
8901
8981
89F1
C5E3
E3C7
700E
781E
3FFC
1FF8
07E0
ENDCHAR
STARTCHAR 0048
ENCODING 72
SWIDTH 617 0
DWIDTH 12 0
BBX 16 23 0 -8
BITMAP
7070
8888
8888
8888
8888
8F88
8008
8008
8008
8F88
8F88
8F88
8888
8888
8888
F888
F88E
7081
00C1
00E1
007F
003F
001E
ENDCHAR
STARTCHAR 0049
ENCODING 73
SWIDTH 205 0
DWIDTH 4 0
BBX 5 18 0 -3
BITMAP
70
88
88
88
88
88
88
88
88
88
88
88
88
88
88
F8
F8
70
ENDCHAR
STARTCHAR 004A
ENCODING 74
SWIDTH 514 0
DWIDTH 10 0
BBX 11 18 0 -3
BITMAP
01C0
0220
0220
0220
0220
0220
0220
0220
7220
8A20
8A20
8A20
8620
C060
E0E0
7FC0
3F80
1F00
ENDCHAR
STARTCHAR 004B
ENCODING 75
SWIDTH 565 0
DWIDTH 11 0
BBX 14 23 0 -8
BITMAP
7000
8800
8800
8B80
8C40
8C40
8840
80C0
8040
8E20
8E20
8E20
8A20
8A20
8A20
FA20
FA38
7204
0304
0384
01FC
00FC
0078
ENDCHAR
STARTCHAR 004C
ENCODING 76
SWIDTH 411 0
DWIDTH 8 0
BBX 9 18 0 -3
BITMAP
7000
8800
8800
8800
8800
8800
8800
8800
8800
8800
8800
8800
8F00
C080
E080
7F80
3F80
1F00
ENDCHAR
STARTCHAR 004D
ENCODING 77
SWIDTH 771 0
DWIDTH 15 0
BBX 19 23 0 -8
BITMAP
1E7800
218400
400200
800100
8E3100
8E3100
8E3100
8A3100
8A3100
8A3100
8A3100
8A3100
8A3100
8A3100
8A3100
FBF100
FBF1C0
71D020
001820
001C20
000FE0
0007E0
0003C0
ENDCHAR
STARTCHAR 004E
ENCODING 78
SWIDTH 514 0
DWIDTH 10 0
BBX 14 23 0 -8
BITMAP
1F00
2080
4040
8020
8E20
8E20
8E20
8A20
8A20
8A20
8A20
8A20
8A20
8A20
8A20
FA20
FA38
7204
0304
0384
01FC
00FC
0078
ENDCHAR
STARTCHAR 004F
ENCODING 79
SWIDTH 771 0
DWIDTH 15 0
BBX 16 18 0 -3
BITMAP
07E0
1818
300C
6006
43C2
87E1
8FF1
8C31
8819
8811
8811
C423
E3C7
700E
781E
3FFC
1FF8
07E0
ENDCHAR
STARTCHAR 0050
ENCODING 80
SWIDTH 617 0
DWIDTH 12 0
BBX 13 18 0 -3
BITMAP
0F80
3060
4030
4010
8708
8F88
8F88
8F88
8C18
8838
8870
8FF0
8FE0
8F80
8800
F800
F800
7000
ENDCHAR
STARTCHAR 0051
ENCODING 81
SWIDTH 771 0
DWIDTH 15 0
BBX 16 23 0 -8
BITMAP
07E0
1818
300C
6006
43C2
87F1
8FF1
88B9
8859
8831
8631
C623
C203
6206
7E0E
3E3C
1E38
0230
0220
0220
03E0
03E0
01C0
ENDCHAR
STARTCHAR 0052
ENCODING 82
SWIDTH 617 0
DWIDTH 12 0
BBX 12 18 0 -3
BITMAP
0F00
30C0
4020
4020
8710
8F90
8F90
8F90
8E30
8830
88F0
88E0
8830
8C10
8E10
FFF0
FFF0
71E0
ENDCHAR
STARTCHAR 0053
ENCODING 83
SWIDTH 462 0
DWIDTH 9 0
BBX 10 18 0 -3
BITMAP
0780
1840
1040
20C0
21C0
21C0
2180
2100
2100
2100
2100
6100
C100
8300
8700
FE00
FE00
7800
ENDCHAR
STARTCHAR 0054
ENCODING 84
SWIDTH 514 0
DWIDTH 10 0
BBX 11 18 0 -3
BITMAP
7FC0
8020
8020
8020
F1E0
F1E0
71C0
1100
1100
1100
1100
1100
1100
1100
1100
1F00
1F00
0E00
ENDCHAR
STARTCHAR 0055
ENCODING 85
SWIDTH 514 0
DWIDTH 10 0
BBX 11 18 0 -3
BITMAP
71C0
8A20
8A20
8A20
8A20
8A20
8A20
8A20
8A20
8A20
8A20
8A20
8E20
C060
E0E0
7FC0
3F80
1F00
ENDCHAR
STARTCHAR 0056
ENCODING 86
SWIDTH 565 0
DWIDTH 11 0
BBX 14 18 -1 -3
BITMAP
3870
4848
8CC8
4488
C79C
6798
6318
7338
3230
3030
1870
1860
1860
0CE0
0CC0
0FC0
0780
0780
ENDCHAR
STARTCHAR 0057
ENCODING 87
SWIDTH 771 0
DWIDTH 15 0
BBX 16 18 0 -3
BITMAP
73CE
8C31
8C31
8C31
8C31
8C31
8C31
8C31
8C31
8C31
8C31
8C31
8C31
C003
E007
7FFE
3FFC
1FF8
ENDCHAR
STARTCHAR 0058
ENCODING 88
SWIDTH 514 0
DWIDTH 10 0
BBX 11 18 0 -3
BITMAP
71C0
8A20
8A20
8A20
8A20
8A20
8E20
C060
C060
8020
8E20
8E20
8E20
8A20
8A20
FBE0
FBE0
71C0
ENDCHAR
STARTCHAR 0059
ENCODING 89
SWIDTH 514 0
DWIDTH 10 0
BBX 11 18 0 -3
BITMAP
71C0
8A20
8A20
8A20
8A20
8A20
8E20
8020
C020
E020
9E20
8E20
8E20
C060
E0E0
7FC0
3F80
1F00
ENDCHAR
STARTCHAR 005A
ENCODING 90
SWIDTH 565 0
DWIDTH 11 0
BBX 12 18 0 -3
BITMAP
3FE0
4010
4010
4030
7C30
7870
3860
10E0
10C0
2180
6180
4300
83E0
8010
8010
FFF0
FFF0
7FE0
ENDCHAR
STARTCHAR 005B
ENCODING 91
SWIDTH 411 0
DWIDTH 8 0
BBX 9 24 0 -7
BITMAP
1F00
2080
4080
8080
8F80
8F80
8F00
8800
8800
8800
8800
8800
8800
8800
8800
8800
8800
8F00
8080
C080
E080
7F80
3F80
1F00
ENDCHAR
STARTCHAR 005C
ENCODING 92
SWIDTH 462 0
DWIDTH 9 0
BBX 10 21 0 -5
BITMAP
7000
9800
8800
8800
C400
C400
C400
6200
6200
6200
3100
3100
3180
1880
1880
0C40
0C40
0CC0
07C0
0780
0380
ENDCHAR
STARTCHAR 005D
ENCODING 93
SWIDTH 411 0
DWIDTH 8 0
BBX 9 24 0 -7
BITMAP
7C00
8200
8100
8080
F880
F880
7880
0880
0880
0880
0880
0880
0880
0880
0880
0880
0880
7880
8080
8180
8380
FF00
FE00
7C00
ENDCHAR
STARTCHAR 005E
ENCODING 94
SWIDTH 411 0
DWIDTH 8 0
BBX 9 9 0 6
BITMAP
1C00
3600
4100
8080
8080
8880
FF80
FF80
7700
ENDCHAR
STARTCHAR 005F
ENCODING 95
SWIDTH 565 0
DWIDTH 11 0
BBX 12 7 0 -3
BITMAP
7FE0
8010
8010
8010
FFF0
FFF0
7FE0
ENDCHAR
STARTCHAR 0060
ENCODING 96
SWIDTH 308 0
DWIDTH 6 0
BBX 7 10 0 5
BITMAP
78
CC
84
86
C2
C2
E6
7E
7E
3C
ENDCHAR
STARTCHAR 0061
ENCODING 97
SWIDTH 617 0
DWIDTH 12 0
BBX 13 14 0 -3
BITMAP
0F80
3060
4030
4010
8708
8F88
8F88
8F88
C188
E088
7088
7FF8
3FF8
0FF0
ENDCHAR
STARTCHAR 0062
ENCODING 98
SWIDTH 565 0
DWIDTH 11 0
BBX 12 18 0 -3
BITMAP
7000
8800
8800
8800
8F00
88C0
8820
8820
8F10
8F90
8F90
8D90
C730
C030
70E0
7FE0
3FC0
0F00
ENDCHAR
STARTCHAR 0063
ENCODING 99
SWIDTH 411 0
DWIDTH 8 0
BBX 9 14 0 -3
BITMAP
0F00
3080
6080
4080
8780
8F80
8F00
8C00
C700
E080
7080
7F80
3F80
0F00
ENDCHAR
STARTCHAR 0064
ENCODING 100
SWIDTH 617 0
DWIDTH 12 0
BBX 12 18 0 -3
BITMAP
0060
0090
0090
0090
0F90
3090
6090
4090
8790
8F90
8F90
8D90
C730
C030
70E0
7FE0
3FC0
0F00
ENDCHAR
STARTCHAR 0065
ENCODING 101
SWIDTH 565 0
DWIDTH 11 0
BBX 11 14 0 -3
BITMAP
1F00
30C0
4060
4020
8420
8860
88E0
89C0
C7E0
E020
7040
7FE0
3FE0
0FC0
ENDCHAR
STARTCHAR 0066
ENCODING 102
SWIDTH 514 0
DWIDTH 10 0
BBX 11 18 0 -3
BITMAP
1F00
2180
4040
8060
8E20
8E20
8E60
8FE0
8020
8020
8020
8FE0
8FE0
8FC0
8800
F800
F800
7000
ENDCHAR
STARTCHAR 0067
ENCODING 103
SWIDTH 617 0
DWIDTH 12 0
BBX 12 25 0 -14
BITMAP
0F00
30C0
4020
4020
8710
8F90
8F90
8F90
C190
E090
F090
7F90
3030
4030
C7F0
8FB0
8F10
8D10
8710
C030
C030
70E0
7FE0
3FC0
0F00
ENDCHAR
STARTCHAR 0068
ENCODING 104
SWIDTH 514 0
DWIDTH 10 0
BBX 14 23 0 -8
BITMAP
7000
8800
8800
8800
8F00
8080
8040
8020
8E20
8E20
8E20
8A20
8A20
8A20
8A20
FA20
FA38
7204
0304
0384
01FC
00FC
0078
ENDCHAR
STARTCHAR 0069
ENCODING 105
SWIDTH 205 0
DWIDTH 4 0
BBX 6 18 0 -3
BITMAP
70
88
84
8C
FC
98
88
88
88
88
88
88
88
88
98
F8
F8
70
ENDCHAR
STARTCHAR 006A
ENCODING 106
SWIDTH 205 0
DWIDTH 4 0
BBX 8 23 -2 -8
BITMAP
0E
11
11
11
1F
11
11
11
11
11
11
11
11
11
11
11
71
81
83
87
FE
FC
78
ENDCHAR
STARTCHAR 006B
ENCODING 107
SWIDTH 514 0
DWIDTH 10 0
BBX 14 23 0 -8
BITMAP
7000
8800
8800
8800
8B80
8C40
8C40
8C40
80C0
80C0
8040
8820
8C20
8C20
8C20
FC20
FC38
7404
0604
0788
03FC
01FC
0078
ENDCHAR
STARTCHAR 006C
ENCODING 108
SWIDTH 205 0
DWIDTH 4 0
BBX 5 18 0 -3
BITMAP
70
88
88
88
88
88
88
88
88
88
88
88
88
88
88
F8
F8
70
ENDCHAR
STARTCHAR 006D
ENCODING 109
SWIDTH 771 0
DWIDTH 15 0
BBX 19 19 0 -8
BITMAP
1E7800
218400
400200
800100
8E3100
8E3100
8E3100
8A3100
8A3100
8A3100
8A3100
FBF100
FBF1C0
71D020
001820
001C20
000FE0
0007E0
0003C0
ENDCHAR
STARTCHAR 006E
ENCODING 110
SWIDTH 514 0
DWIDTH 10 0
BBX 14 19 0 -8
BITMAP
1F00
2080
4040
8020
8E20
8E20
8E20
8A20
8A20
8A20
8A20
FA20
FA38
7204
0304
0384
01FC
00FC
0078
ENDCHAR
STARTCHAR 006F
ENCODING 111
SWIDTH 565 0
DWIDTH 11 0
BBX 12 14 0 -3
BITMAP
0F00
30C0
4020
4020
8710
8F90
8F90
8F90
C730
C030
70E0
7FE0
3FC0
0F00
ENDCHAR
STARTCHAR 0070
ENCODING 112
SWIDTH 565 0
DWIDTH 11 0
BBX 12 19 0 -8
BITMAP
0F00
30C0
4020
4020
8710
8F90
8F90
8F90
8C30
8830
88E0
8FE0
8FC0
8F00
8800
8800
F800
F800
7000
ENDCHAR
STARTCHAR 0071
ENCODING 113
SWIDTH 617 0
DWIDTH 12 0
BBX 12 19 0 -8
BITMAP
0F00
30C0
4020
4020
8710
8F90
8F90
8F90
C190
E090
7090
7F90
3F90
1F90
0190
0190
01F0
01F0
00E0
ENDCHAR
STARTCHAR 0072
ENCODING 114
SWIDTH 360 0
DWIDTH 7 0
BBX 8 14 0 -3
BITMAP
1E
21
41
81
8F
8F
8E
88
88
88
88
F8
F8
70
ENDCHAR
STARTCHAR 0073
ENCODING 115
SWIDTH 462 0
DWIDTH 9 0
BBX 10 14 0 -3
BITMAP
0380
0C40
0840
10C0
11C0
11C0
1180
7100
C100
8300
8600
FE00
FC00
7800
ENDCHAR
STARTCHAR 0074
ENCODING 116
SWIDTH 514 0
DWIDTH 10 0
BBX 11 16 0 -3
BITMAP
7000
8800
8FC0
8020
8020
8020
8FE0
8E20
8E20
8A20
8C20
C060
E0E0
7FC0
3F80
1F00
ENDCHAR
STARTCHAR 0075
ENCODING 117
SWIDTH 514 0
DWIDTH 10 0
BBX 11 14 0 -3
BITMAP
71C0
8A20
8A20
8A20
8A20
8A20
8A20
8A20
8E20
C060
E0E0
7FC0
3F80
1F00
ENDCHAR
STARTCHAR 0076
ENCODING 118
SWIDTH 514 0
DWIDTH 10 0
BBX 11 14 0 -3
BITMAP
73C0
9A40
8E20
8C40
C460
C0C0
C0C0
61C0
6180
3180
3300
3F00
1F00
0E00
ENDCHAR
STARTCHAR 0077
ENCODING 119
SWIDTH 771 0
DWIDTH 15 0
BBX 16 14 0 -3
BITMAP
71CE
8A31
8A31
8A31
8A31
8A31
8A31
8A31
8E31
C003
E007
7FFE
3FFC
1FF8
ENDCHAR
STARTCHAR 0078
ENCODING 120
SWIDTH 514 0
DWIDTH 10 0
BBX 11 14 0 -3
BITMAP
71C0
8A20
8A20
8E20
8020
C060
C040
8040
8E20
8E20
8E20
FBE0
FBE0
71C0
ENDCHAR
STARTCHAR 0079
ENCODING 121
SWIDTH 514 0
DWIDTH 10 0
BBX 11 19 0 -8
BITMAP
71C0
8A20
8A20
8A20
8A20
8A20
8A20
8E20
8020
8020
C020
6220
7E20
3020
1060
10E0
1FC0
1F80
0F00
ENDCHAR
STARTCHAR 007A
ENCODING 122
SWIDTH 514 0
DWIDTH 10 0
BBX 11 14 0 -3
BITMAP
3FC0
4020
4020
4060
7860
70C0
21C0
4380
C3C0
8020
8040
FFE0
FFE0
7FC0
ENDCHAR
STARTCHAR 007B
ENCODING 123
SWIDTH 360 0
DWIDTH 7 0
BBX 9 24 0 -7
BITMAP
1F00
2080
4080
8080
8F80
8F80
8F00
8800
8800
8800
8800
8800
8800
8800
8800
8800
8800
8F00
8080
C080
E080
7F80
3F80
1F00
ENDCHAR
STARTCHAR 007C
ENCODING 124
SWIDTH 205 0
DWIDTH 4 0
BBX 5 22 0 -5
BITMAP
70
88
88
88
88
88
88
88
88
88
88
88
88
88
88
88
88
88
88
F8
F8
70
ENDCHAR
STARTCHAR 007D
ENCODING 125
SWIDTH 360 0
DWIDTH 7 0
BBX 9 24 0 -7
BITMAP
7C00
8200
8100
8080
F880
F880
7880
0880
0880
0880
0880
0880
0880
0880
0880
0880
0880
7880
8080
8180
8380
FF00
FE00
7C00
ENDCHAR
STARTCHAR 007E
ENCODING 126
SWIDTH 411 0
DWIDTH 8 0
BBX 9 8 0 7
BITMAP
3F00
4480
8080
8080
9180
FF80
FF00
7E00
ENDCHAR
STARTCHAR 00A1
ENCODING 161
SWIDTH 205 0
DWIDTH 4 0
BBX 6 18 -1 -3
BITMAP
38
44
84
44
7C
CC
8C
88
88
88
88
88
88
88
C8
F8
78
70
ENDCHAR
STARTCHAR 00A2
ENCODING 162
SWIDTH 360 0
DWIDTH 7 0
BBX 9 18 0 -3
BITMAP
0C00
1200
1300
3D80
4080
8100
8780
8F80
8F00
8C00
8700
C080
F080
7F80
3380
1F00
1E00
0C00
ENDCHAR
STARTCHAR 00A3
ENCODING 163
SWIDTH 565 0
DWIDTH 11 0
BBX 13 18 0 -3
BITMAP
1F00
6180
4080
8180
8F80
8080
8040
8070
8098
8F88
8F88
8F08
8018
8018
8070
FFF0
FFE0
7FC0
ENDCHAR
STARTCHAR 00A4
ENCODING 164
SWIDTH 565 0
DWIDTH 11 0
BBX 12 18 0 -3
BITMAP
03E0
0620
0810
1030
61F0
8030
8020
8020
E3F0
8030
8020
8030
E1F0
F010
7C10
1FF0
0FE0
03E0
ENDCHAR
STARTCHAR 00A5
ENCODING 165
SWIDTH 565 0
DWIDTH 11 0
BBX 12 20 0 -3
BITMAP
30C0
4920
4920
4920
4920
4920
4E20
4060
E060
8010
8010
F1F0
8030
8010
8010
F1F0
F9F0
7FE0
1F00
0F00
ENDCHAR
STARTCHAR 00A7
ENCODING 167
SWIDTH 668 0
DWIDTH 13 0
BBX 14 18 0 -3
BITMAP
03C0
0C60
0838
10CC
1304
120C
123C
123C
1238
7220
8620
8620
8860
F060
F1C0
7FC0
1F80
0F00
ENDCHAR
STARTCHAR 00A8
ENCODING 168
SWIDTH 462 0
DWIDTH 9 0
BBX 9 8 0 14
BITMAP
7700
9900
8880
8880
9980
FF80
FF00
7700
ENDCHAR
STARTCHAR 00A9
ENCODING 169
SWIDTH 771 0
DWIDTH 15 0
BBX 16 18 0 -3
BITMAP
07E0
1830
200C
4004
43C2
8472
89F1
89F9
89F9
89F9
8873
C473
C3C6
600E
783C
3FFC
1FF0
07E0
ENDCHAR
STARTCHAR 00AA
ENCODING 170
SWIDTH 1080 0
DWIDTH 21 0
BBX 22 19 0 1
BITMAP
00FC00
01FF00
03FF80
07EFC0
0787E0
0703E0
0F01F0
7F00F0
7FC770
1E0070
3FC674
FC007C
7C00F8
3C00F8
7E31F0
3E03F0
3F33C0
0C8FC0
007800
ENDCHAR
STARTCHAR 00AB
ENCODING 171
SWIDTH 514 0
DWIDTH 10 0
BBX 11 11 0 -2
BITMAP
1FC0
2660
4420
8860
88E0
8860
C420
E660
7FE0
3FE0
19C0
ENDCHAR
STARTCHAR 00AC
ENCODING 172
SWIDTH 1337 0
DWIDTH 26 0
BBX 25 20 1 0
BITMAP
00200000
00FF0000
01FFC000
03FFE000
07E3F000
07C1F800
07807800
1F807C00
7F803C00
FF763C00
3F001C80
7E771E80
FC7B1F80
FC361F80
7C003F00
FE1C3E00
7F147C00
3988F800
00637000
001C0000
ENDCHAR
STARTCHAR 00AE
ENCODING 174
SWIDTH 771 0
DWIDTH 15 0
BBX 16 18 0 -3
BITMAP
07E0
1830
200C
4004
43C2
8432
8991
8989
8999
8939
8973
C933
C7C6
600E
783C
3FFC
1FF0
07E0
ENDCHAR
STARTCHAR 00AF
ENCODING 175
SWIDTH 565 0
DWIDTH 11 0
BBX 10 7 1 11
BITMAP
7F80
8040
8040
8080
FFC0
FFC0
7F80
ENDCHAR
STARTCHAR 00B0
ENCODING 176
SWIDTH 257 0
DWIDTH 5 0
BBX 7 8 0 7
BITMAP
38
C6
82
92
C6
FE
FE
38
ENDCHAR
STARTCHAR 00B1
ENCODING 177
SWIDTH 462 0
DWIDTH 9 0
BBX 10 15 0 -3
BITMAP
1C00
3200
3300
C080
8040
8040
F3C0
F3C0
FF80
8040
8040
8040
FFC0
FFC0
7F80
ENDCHAR
STARTCHAR 00B4
ENCODING 180
SWIDTH 308 0
DWIDTH 6 0
BBX 7 10 0 14
BITMAP
38
44
42
84
86
86
8C
FC
F8
70
ENDCHAR
STARTCHAR 00B5
ENCODING 181
SWIDTH 720 0
DWIDTH 14 0
BBX 15 19 0 -8
BITMAP
71C0
8A20
8A20
8A20
8A20
8A20
8A20
8C3C
8006
8002
8004
8FFE
8FFE
8FFC
8800
9800
F800
F000
7000
ENDCHAR
STARTCHAR 00B6
ENCODING 182
SWIDTH 720 0
DWIDTH 14 0
BBX 15 18 0 -3
BITMAP
1FFC
3002
4002
8002
8C62
8C62
8C62
8C62
8462
C062
E062
7C62
3C62
1C62
0466
07FE
07FE
03BC
ENDCHAR
STARTCHAR 00B7
ENCODING 183
SWIDTH 257 0
DWIDTH 5 0
BBX 6 7 0 -3
BITMAP
78
CC
84
44
FC
FC
78
ENDCHAR
STARTCHAR 00B8
ENCODING 184
SWIDTH 360 0
DWIDTH 7 0
BBX 6 7 0 -7
BITMAP
1C
1C
1C
3C
F8
F8
F0
ENDCHAR
STARTCHAR 00BA
ENCODING 186
SWIDTH 1080 0
DWIDTH 21 0
BBX 22 19 0 1
BITMAP
00FC00
01FF00
03FF80
07EFC0
0787E0
0703E0
0F01F0
7F00F0
7FC770
1E0070
3FC674
FC007C
7C00F8
3C00F8
7E31F0
3E03F0
3F33C0
0C8FC0
007800
ENDCHAR
STARTCHAR 00BB
ENCODING 187
SWIDTH 514 0
DWIDTH 10 0
BBX 11 11 0 -2
BITMAP
7700
9980
88C0
8860
C620
8C60
88E0
99C0
FFC0
FF80
6700
ENDCHAR
STARTCHAR 00BF
ENCODING 191
SWIDTH 565 0
DWIDTH 11 0
BBX 12 18 0 -3
BITMAP
0380
0480
0440
04C0
1FC0
30C0
4040
80C0
87E0
8F90
8F90
8710
8030
C070
F0E0
7FE0
3FC0
1F00
ENDCHAR
STARTCHAR 00C0
ENCODING 192
SWIDTH 617 0
DWIDTH 12 0
BBX 15 32 0 -8
BITMAP
1E00
3300
2100
2180
3080
3080
3980
1F80
1F80
0F00
30C0
4020
4020
8710
8F90
8F90
8F90
8C10
8810
8810
8F90
8F90
8F90
8890
F890
F89C
7082
00C2
00E2
007E
007E
001C
ENDCHAR
STARTCHAR 00C1
ENCODING 193
SWIDTH 617 0
DWIDTH 12 0
BBX 15 32 0 -8
BITMAP
0780
0CC0
0840
1840
10C0
10C0
19C0
1F80
1F80
0F00
30C0
4020
4020
8710
8F90
8F90
8F90
8C10
8810
8810
8F90
8F90
8F90
8890
F890
F89C
7082
00C2
00E2
007E
007E
001C
ENDCHAR
STARTCHAR 00C2
ENCODING 194
SWIDTH 617 0
DWIDTH 12 0
BBX 15 31 0 -8
BITMAP
0700
0880
1040
2020
2020
2220
3FE0
3FE0
1FC0
30C0
4020
4020
8710
8F90
8F90
8F90
8C10
8810
8810
8F90
8F90
8F90
8890
F890
F89C
7082
00C2
00E2
007E
007E
001C
ENDCHAR
STARTCHAR 00C3
ENCODING 195
SWIDTH 565 0
DWIDTH 11 0
BBX 15 30 0 -8
BITMAP
0FC0
1120
2020
2020
2460
3FE0
3FC0
1F80
30C0
4020
4020
8710
8F90
8F90
8F90
8C10
8810
8810
8F90
8F90
8F90
8890
F890
F89C
7082
00C2
00E2
007E
007E
001C
ENDCHAR
STARTCHAR 00C4
ENCODING 196
SWIDTH 565 0
DWIDTH 11 0
BBX 15 31 0 -8
BITMAP
1DC0
3620
2220
2220
3720
3FE0
3FE0
1DC0
0F00
30C0
4020
4020
8710
8F90
8F90
8F90
8C10
8810
8810
8F90
8F90
8F90
8890
F890
F89C
7082
00C2
00E2
007E
007E
001C
ENDCHAR
STARTCHAR 00C5
ENCODING 197
SWIDTH 565 0
DWIDTH 11 0
BBX 15 28 0 -8
BITMAP
0700
18C0
1040
1240
18C0
1FC0
3FC0
4720
4020
8710
8F90
8F90
8F90
8C10
8810
8810
8F90
8F90
8F90
8890
F890
F89C
7082
00C2
00E2
007E
007E
001C
ENDCHAR
STARTCHAR 00C6
ENCODING 198
SWIDTH 874 0
DWIDTH 17 0
BBX 18 18 0 -3
BITMAP
1F0F80
30D8C0
406040
8000C0
8607C0
8F0FC0
8F1F80
8F00C0
8E0040
8800C0
881FC0
8F0F80
8F07C0
8F0040
891840
F9FFC0
F9FFC0
71FF80
ENDCHAR
STARTCHAR 00C7
ENCODING 199
SWIDTH 462 0
DWIDTH 9 0
BBX 11 22 0 -7
BITMAP
07C0
1820
3020
4040
43E0
87E0
8FC0
8C00
8800
8800
8400
C380
C040
F020
7820
3FE0
11E0
11C0
1180
1F80
1F00
0E00
ENDCHAR
STARTCHAR 00C8
ENCODING 200
SWIDTH 462 0
DWIDTH 9 0
BBX 11 27 0 -3
BITMAP
1E00
3300
2100
2180
3080
3080
3980
1F80
1F80
0FC0
1C20
3020
6020
43E0
87E0
8FC0
8020
8020
8020
8FE0
C7C0
E3E0
7020
7C20
3FE0
1FE0
07C0
ENDCHAR
STARTCHAR 00C9
ENCODING 201
SWIDTH 462 0
DWIDTH 9 0
BBX 11 27 0 -3
BITMAP
0F00
1980
1080
3080
2180
2180
3380
3F00
3F00
1FC0
1C20
3020
6020
43E0
87E0
8FC0
8020
8020
8020
8FE0
C7C0
E3E0
7020
7C20
3FE0
1FE0
07C0
ENDCHAR
STARTCHAR 00CA
ENCODING 202
SWIDTH 514 0
DWIDTH 10 0
BBX 11 27 0 -3
BITMAP
0700
0880
1040
2020
2020
2220
3FE0
3FE0
1FC0
07C0
1C20
3020
6020
43E0
87E0
8FC0
8020
8020
8020
8FE0
C7C0
E3E0
7020
7C20
3FE0
1FE0
07C0
ENDCHAR
STARTCHAR 00CB
ENCODING 203
SWIDTH 462 0
DWIDTH 9 0
BBX 11 26 0 -3
BITMAP
1DC0
3620
2220
2220
3720
3FE0
3FE0
1DC0
07C0
1C20
3020
6020
43E0
87E0
8FC0
8020
8020
8020
8FE0
C7C0
E3E0
7020
7C20
3FE0
1FE0
07C0
ENDCHAR
STARTCHAR 00CC
ENCODING 204
SWIDTH 205 0
DWIDTH 4 0
BBX 7 27 -1 -3
BITMAP
78
CC
84
86
C2
C2
E6
7E
7E
3C
44
44
44
44
44
44
44
44
44
44
44
44
44
44
7C
7C
38
ENDCHAR
STARTCHAR 00CD
ENCODING 205
SWIDTH 205 0
DWIDTH 4 0
BBX 7 27 0 -3
BITMAP
3C
66
42
C2
86
86
CE
FC
FC
78
88
88
88
88
88
88
88
88
88
88
88
88
88
88
F8
F8
70
ENDCHAR
STARTCHAR 00CE
ENCODING 206
SWIDTH 205 0
DWIDTH 4 0
BBX 9 26 -2 -3
BITMAP
1C00
2200
4100
8080
8080
8880
FF80
FF80
7F00
2200
2200
2200
2200
2200
2200
2200
2200
2200
2200
2200
2200
2200
2200
3E00
3E00
1C00
ENDCHAR
STARTCHAR 00CF
ENCODING 207
SWIDTH 205 0
DWIDTH 4 0
BBX 9 26 -2 -3
BITMAP
7700
D880
8880
8880
DC80
FF80
FF80
7700
1C00
2200
2200
2200
2200
2200
2200
2200
2200
2200
2200
2200
2200
2200
2200
3E00
3E00
1C00
ENDCHAR
STARTCHAR 00D0
ENCODING 208
SWIDTH 1080 0
DWIDTH 21 0
BBX 22 19 0 1
BITMAP
00FC00
01FF00
03FF80
07EFC0
0787E0
0703E0
0F01F0
7F00F0
7FC770
1E0070
3FC674
FC007C
7C00F8
3C00F8
7E31F0
3E03F0
3F33C0
0C8FC0
007800
ENDCHAR
STARTCHAR 00D1
ENCODING 209
SWIDTH 462 0
DWIDTH 9 0
BBX 14 27 0 -8
BITMAP
1F80
2240
4040
4040
5FC0
7FC0
7FC0
BF20
8E20
8E20
8E20
8A20
8A20
8A20
8A20
8A20
8A20
8A20
8A20
FA20
FA38
7204
0304
0384
01FC
00FC
0078
ENDCHAR
STARTCHAR 00D2
ENCODING 210
SWIDTH 771 0
DWIDTH 15 0
BBX 16 28 0 -3
BITMAP
0780
0CC0
0840
0860
0C20
0C20
0E60
07E0
07E0
03C0
07E0
1818
300C
6006
43C2
87F1
8FF1
8C31
8819
8811
8811
C433
E3C7
700E
781E
3FFC
1FF8
07E0
ENDCHAR
STARTCHAR 00D3
ENCODING 211
SWIDTH 771 0
DWIDTH 15 0
BBX 16 27 0 -3
BITMAP
00F0
0198
0108
0308
0218
0218
0338
03F0
03F0
07E0
1818
300C
6006
43C2
87F1
8FF1
8C31
8819
8811
8811
C433
E3C7
700E
781E
3FFC
1FF8
07E0
ENDCHAR
STARTCHAR 00D4
ENCODING 212
SWIDTH 771 0
DWIDTH 15 0
BBX 16 27 0 -3
BITMAP
01C0
0220
0410
0808
0808
0888
0FF8
0FF8
07F0
07E0
1818
300C
6006
43C2
87F1
8FF1
8C31
8819
8811
8811
C433
E3C7
700E
781E
3FFC
1FF8
07E0
ENDCHAR
STARTCHAR 00D5
ENCODING 213
SWIDTH 771 0
DWIDTH 15 0
BBX 16 25 0 -3
BITMAP
03F0
0448
0808
0808
0918
0FF8
0FF0
07E0
1818
300C
6006
43C2
87F1
8FF1
8C31
8819
8811
8811
C433
E3C7
700E
781E
3FFC
1FF8
07E0
ENDCHAR
STARTCHAR 00D6
ENCODING 214
SWIDTH 771 0
DWIDTH 15 0
BBX 16 26 0 -3
BITMAP
0770
0D88
0888
0888
0DC8
0FF8
0FF8
0770
07E0
1818
300C
6006
43C2
87F1
8FF1
8C31
8819
8811
8811
C433
E3C7
700E
781E
3FFC
1FF8
07E0
ENDCHAR
STARTCHAR 00D8
ENCODING 216
SWIDTH 822 0
DWIDTH 16 0
BBX 16 18 0 -3
BITMAP
07E0
1818
300C
6006
43C2
87F1
8FF1
8C31
8819
8811
8811
C433
E3C7
700E
781E
3FFC
1FF8
07E0
ENDCHAR
STARTCHAR 00D9
ENCODING 217
SWIDTH 462 0
DWIDTH 9 0
BBX 11 26 0 -3
BITMAP
1E00
3300
2100
2180
3080
3080
3980
1F80
7FC0
8F20
8A20
8A20
8A20
8A20
8A20
8A20
8A20
8A20
8A20
8A20
8E20
C060
E0E0
7FC0
3F80
1F00
ENDCHAR
STARTCHAR 00DA
ENCODING 218
SWIDTH 462 0
DWIDTH 9 0
BBX 11 27 0 -3
BITMAP
0780
0CC0
0840
1840
10C0
10C0
19C0
1F80
1F80
7FC0
8A20
8A20
8A20
8A20
8A20
8A20
8A20
8A20
8A20
8A20
8A20
8E20
C060
E0E0
7FC0
3F80
1F00
ENDCHAR
STARTCHAR 00DB
ENCODING 219
SWIDTH 462 0
DWIDTH 9 0
BBX 11 26 0 -3
BITMAP
0E00
1100
2080
4040
4040
4440
7FC0
7FC0
7FC0
8A20
8A20
8A20
8A20
8A20
8A20
8A20
8A20
8A20
8A20
8A20
8E20
C060
E0E0
7FC0
3F80
1F00
ENDCHAR
STARTCHAR 00DC
ENCODING 220
SWIDTH 462 0
DWIDTH 9 0
BBX 11 26 0 -3
BITMAP
3B80
6C40
4440
4440
6E40
7FC0
7FC0
3B80
71C0
8A20
8A20
8A20
8A20
8A20
8A20
8A20
8A20
8A20
8A20
8A20
8E20
C060
E0E0
7FC0
3F80
1F00
ENDCHAR
STARTCHAR 00DD
ENCODING 221
SWIDTH 462 0
DWIDTH 9 0
BBX 8 20 1 0
BITMAP
0C
1E
1C
1C
18
00
42
E7
E7
E7
E7
FF
7F
3F
47
E7
E7
FF
7E
3C
ENDCHAR
STARTCHAR 00DE
ENCODING 222
SWIDTH 1080 0
DWIDTH 21 0
BBX 22 19 0 1
BITMAP
00FC00
01FF00
03FF80
07EFC0
0787E0
0703E0
0F01F0
7F00F0
7FC770
1E0070
3FC674
FC007C
7C00F8
3C00F8
7E31F0
3E03F0
3F33C0
0C8FC0
007800
ENDCHAR
STARTCHAR 00DF
ENCODING 223
SWIDTH 514 0
DWIDTH 10 0
BBX 11 22 0 -7
BITMAP
1F00
6080
4040
8040
8C20
8E20
8C60
9060
90C0
8C40
8E20
8E20
8860
9060
91C0
8FC0
8F80
8F00
9800
F800
F800
7000
ENDCHAR
STARTCHAR 00E0
ENCODING 224
SWIDTH 565 0
DWIDTH 11 0
BBX 13 24 0 -3
BITMAP
1E00
3300
2100
2180
3080
3080
3980
1F80
1F80
0F00
0F80
3060
4030
4010
8708
8F88
8F88
8F88
C188
E088
7088
7FF8
3FF8
0FF0
ENDCHAR
STARTCHAR 00E1
ENCODING 225
SWIDTH 565 0
DWIDTH 11 0
BBX 13 25 0 -3
BITMAP
0780
0CC0
0840
1840
10C0
10C0
19C0
1F80
1F80
0F00
0000
0F80
3060
4030
4010
8708
8F88
8F88
8F88
C188
E088
7088
7FF8
3FF8
0FF0
ENDCHAR
STARTCHAR 00E2
ENCODING 226
SWIDTH 565 0
DWIDTH 11 0
BBX 13 22 0 -3
BITMAP
0700
0880
1040
2020
2020
2220
3FE0
3FE0
1FC0
3060
4030
4010
8708
8F88
8F88
8F88
C188
E088
7088
7FF8
3FF8
0FF0
ENDCHAR
STARTCHAR 00E3
ENCODING 227
SWIDTH 565 0
DWIDTH 11 0
BBX 13 21 0 -3
BITMAP
0FC0
1120
2020
2020
2460
3FE0
3FC0
1F80
3060
4030
4010
8708
8F88
8F88
8F88
C188
E088
7088
7FF8
3FF8
0FF0
ENDCHAR
STARTCHAR 00E4
ENCODING 228
SWIDTH 565 0
DWIDTH 11 0
BBX 13 22 0 -3
BITMAP
1DC0
3620
2220
2220
3720
3FE0
3FE0
1DC0
0F80
3060
4030
4010
8708
8F88
8F88
8F88
C188
E088
7088
7FF8
3FF8
0FF0
ENDCHAR
STARTCHAR 00E5
ENCODING 229
SWIDTH 565 0
DWIDTH 11 0
BBX 13 22 0 -3
BITMAP
0700
18C0
1040
1240
18C0
1FC0
1FC0
0700
0F80
3060
4030
4010
8708
8F88
8F88
8F88
C188
E088
7088
7FF8
3FF8
0FF0
ENDCHAR
STARTCHAR 00E6
ENCODING 230
SWIDTH 925 0
DWIDTH 18 0
BBX 19 14 0 -3
BITMAP
1F9F00
3060C0
400060
800020
870840
8F90E0
8F91E0
8F93C0
838F80
C1C040
F1E080
7FFFC0
3FFFC0
1F1F80
ENDCHAR
STARTCHAR 00E7
ENCODING 231
SWIDTH 360 0
DWIDTH 7 0
BBX 9 18 0 -7
BITMAP
0F00
3180
4080
8100
8780
8F80
8F00
8700
8180
C080
F180
7F80
6380
2100
2300
3F00
3E00
1C00
ENDCHAR
STARTCHAR 00E8
ENCODING 232
SWIDTH 514 0
DWIDTH 10 0
BBX 11 23 0 -3
BITMAP
1E00
3300
2100
2180
3080
3080
3980
1F80
1F80
1F00
30C0
4060
4020
8420
8860
88E0
89C0
C7E0
E020
7040
7FE0
3FE0
0FC0
ENDCHAR
STARTCHAR 00E9
ENCODING 233
SWIDTH 514 0
DWIDTH 10 0
BBX 11 23 0 -3
BITMAP
0780
0CC0
0840
1840
10C0
10C0
19C0
1F80
1F80
1F00
30C0
4060
4020
8420
8860
88E0
89C0
C7E0
E020
7040
7FE0
3FE0
0FC0
ENDCHAR
STARTCHAR 00EA
ENCODING 234
SWIDTH 514 0
DWIDTH 10 0
BBX 11 22 0 -3
BITMAP
0700
0880
1040
2020
2020
2220
3FE0
3FE0
1FC0
30C0
4060
4020
8420
8860
88E0
89C0
C7E0
E020
7040
7FE0
3FE0
0FC0
ENDCHAR
STARTCHAR 00EB
ENCODING 235
SWIDTH 514 0
DWIDTH 10 0
BBX 11 22 0 -3
BITMAP
3B80
6C40
4440
4440
6E40
7FC0
7FC0
3B80
1F00
30C0
4060
4020
8420
8860
88E0
89C0
C7E0
E020
7040
7FE0
3FE0
0FC0
ENDCHAR
STARTCHAR 00EC
ENCODING 236
SWIDTH 205 0
DWIDTH 4 0
BBX 7 23 -2 -3
BITMAP
78
CC
84
86
C2
C2
E6
7E
7E
3C
22
22
22
22
22
22
22
22
22
22
3E
3E
1C
ENDCHAR
STARTCHAR 00ED
ENCODING 237
SWIDTH 205 0
DWIDTH 4 0
BBX 7 23 0 -3
BITMAP
3C
66
42
C2
86
86
CE
FC
FC
78
88
88
88
88
88
88
88
88
88
88
F8
F8
70
ENDCHAR
STARTCHAR 00EE
ENCODING 238
SWIDTH 205 0
DWIDTH 4 0
BBX 9 22 -2 -3
BITMAP
1C00
2200
4100
8080
8080
8880
FF80
FF80
7F00
2200
2200
2200
2200
2200
2200
2200
2200
2200
2200
3E00
3E00
1C00
ENDCHAR
STARTCHAR 00EF
ENCODING 239
SWIDTH 205 0
DWIDTH 4 0
BBX 9 22 -2 -3
BITMAP
7700
D880
8880
8880
DC80
FF80
FF80
7700
1C00
2200
2200
2200
2200
2200
2200
2200
2200
2200
2200
3E00
3E00
1C00
ENDCHAR
STARTCHAR 00F0
ENCODING 240
SWIDTH 1080 0
DWIDTH 21 0
BBX 22 19 0 1
BITMAP
00FC00
01FF00
03FF80
07EFC0
0787E0
0703E0
0F01F0
7F00F0
7FC770
1E0070
3FC674
FC007C
7C00F8
3C00F8
7E31F0
3E03F0
3F33C0
0C8FC0
007800
ENDCHAR
STARTCHAR 00F1
ENCODING 241
SWIDTH 462 0
DWIDTH 9 0
BBX 14 26 0 -8
BITMAP
1F80
2240
4040
4040
48C0
7FC0
7F80
3F00
2080
4040
8020
8E20
8E20
8E20
8A20
8A20
8A20
8A20
FA20
FA38
7204
0304
0384
01FC
00FC
0078
ENDCHAR
STARTCHAR 00F2
ENCODING 242
SWIDTH 565 0
DWIDTH 11 0
BBX 12 23 0 -3
BITMAP
1E00
3300
2100
2180
3080
3080
3980
1F80
1F80
0F00
30C0
4020
4020
8710
8F90
8F90
8F90
C730
C030
70E0
7FE0
3FC0
0F00
ENDCHAR
STARTCHAR 00F3
ENCODING 243
SWIDTH 565 0
DWIDTH 11 0
BBX 12 23 0 -3
BITMAP
0780
0CC0
0840
1840
10C0
10C0
19C0
1F80
1F80
0F00
30C0
4020
4020
8710
8F90
8F90
8F90
C730
C030
70E0
7FE0
3FC0
0F00
ENDCHAR
STARTCHAR 00F4
ENCODING 244
SWIDTH 565 0
DWIDTH 11 0
BBX 12 22 0 -3
BITMAP
0700
0880
1040
2020
2020
2220
3FE0
3FE0
1FC0
30C0
4020
4020
8710
8F90
8F90
8F90
C730
C030
70E0
7FE0
3FC0
0F00
ENDCHAR
STARTCHAR 00F5
ENCODING 245
SWIDTH 565 0
DWIDTH 11 0
BBX 12 21 0 -3
BITMAP
0FC0
1120
2020
2020
2460
3FE0
3FC0
1F80
30C0
4020
4020
8710
8F90
8F90
8F90
C730
C030
70E0
7FE0
3FC0
0F00
ENDCHAR
STARTCHAR 00F6
ENCODING 246
SWIDTH 565 0
DWIDTH 11 0
BBX 12 22 0 -3
BITMAP
1DC0
3620
2220
2220
3720
3FE0
3FE0
1DC0
0F00
30C0
4020
4020
8710
8F90
8F90
8F90
C730
C030
70E0
7FE0
3FC0
0F00
ENDCHAR
STARTCHAR 00F7
ENCODING 247
SWIDTH 1080 0
DWIDTH 21 0
BBX 22 19 0 1
BITMAP
00FC00
01FF00
03FF80
07EFC0
0787E0
0703E0
0F01F0
7F00F0
7FC770
1E0070
3FC674
FC007C
7C00F8
3C00F8
7E31F0
3E03F0
3F33C0
0C8FC0
007800
ENDCHAR
STARTCHAR 00F8
ENCODING 248
SWIDTH 771 0
DWIDTH 15 0
BBX 16 18 0 -3
BITMAP
07E0
1818
300C
6006
43C2
87F1
8FF1
8C31
8819
8811
8811
C433
E3C7
700E
781E
3FFC
1FF8
07E0
ENDCHAR
STARTCHAR 00F9
ENCODING 249
SWIDTH 462 0
DWIDTH 9 0
BBX 11 22 0 -3
BITMAP
1E00
3300
2100
2180
3080
3080
3980
1F80
7FC0
8F20
8A20
8A20
8A20
8A20
8A20
8A20
8E20
C060
E0E0
7FC0
3F80
1F00
ENDCHAR
STARTCHAR 00FA
ENCODING 250
SWIDTH 462 0
DWIDTH 9 0
BBX 11 23 0 -3
BITMAP
0780
0CC0
0840
1840
10C0
10C0
19C0
1F80
1F80
7FC0
8A20
8A20
8A20
8A20
8A20
8A20
8A20
8E20
C060
E0E0
7FC0
3F80
1F00
ENDCHAR
STARTCHAR 00FB
ENCODING 251
SWIDTH 462 0
DWIDTH 9 0
BBX 11 22 0 -3
BITMAP
0E00
1100
2080
4040
4040
4440
7FC0
7FC0
7FC0
8A20
8A20
8A20
8A20
8A20
8A20
8A20
8E20
C060
E0E0
7FC0
3F80
1F00
ENDCHAR
STARTCHAR 00FC
ENCODING 252
SWIDTH 462 0
DWIDTH 9 0
BBX 11 22 0 -3
BITMAP
3B80
6C40
4440
4440
6E40
7FC0
7FC0
3B80
71C0
8A20
8A20
8A20
8A20
8A20
8A20
8A20
8E20
C060
E0E0
7FC0
3F80
1F00
ENDCHAR
STARTCHAR 00FE
ENCODING 254
SWIDTH 1080 0
DWIDTH 21 0
BBX 22 19 0 1
BITMAP
00FC00
01FF00
03FF80
07EFC0
0787E0
0703E0
0F01F0
7F00F0
7FC770
1E0070
3FC674
FC007C
7C00F8
3C00F8
7E31F0
3E03F0
3F33C0
0C8FC0
007800
ENDCHAR
STARTCHAR 00FF
ENCODING 255
SWIDTH 565 0
DWIDTH 11 0
BBX 11 27 0 -8
BITMAP
3B80
6C40
4440
4440
6E40
7FC0
7FC0
3B80
71C0
8A20
8A20
8A20
8A20
8A20
8A20
8E20
8020
8020
C020
6220
7E20
3020
1060
10E0
1FC0
1F80
0F00
ENDCHAR
STARTCHAR 0131
ENCODING 305
SWIDTH 205 0
DWIDTH 4 0
BBX 5 14 0 -3
BITMAP
70
88
88
88
88
88
88
88
88
88
98
F8
F8
70
ENDCHAR
STARTCHAR 0141
ENCODING 321
SWIDTH 1080 0
DWIDTH 21 0
BBX 22 19 0 1
BITMAP
00FC00
01FF00
03FF80
07EFC0
0787E0
0703E0
0F01F0
7F00F0
7FC770
1E0070
3FC674
FC007C
7C00F8
3C00F8
7E31F0
3E03F0
3F33C0
0C8FC0
007800
ENDCHAR
STARTCHAR 0142
ENCODING 322
SWIDTH 1080 0
DWIDTH 21 0
BBX 22 19 0 1
BITMAP
00FC00
01FF00
03FF80
07EFC0
0787E0
0703E0
0F01F0
7F00F0
7FC770
1E0070
3FC674
FC007C
7C00F8
3C00F8
7E31F0
3E03F0
3F33C0
0C8FC0
007800
ENDCHAR
STARTCHAR 0152
ENCODING 338
SWIDTH 1028 0
DWIDTH 20 0
BBX 22 18 0 -3
BITMAP
07E0F8
18198C
200E04
40040C
43C07C
87E0FC
8FF1F8
8C300C
881004
88100C
8811FC
C420F8
C3C03C
600404
781F04
3FFFFC
1FFBFC
07E0F8
ENDCHAR
STARTCHAR 0153
ENCODING 339
SWIDTH 874 0
DWIDTH 17 0
BBX 19 14 0 -3
BITMAP
1F9F00
3060C0
400060
800020
870840
8F90E0
8F91E0
8F93C0
870F80
C00040
F06080
7FFFC0
3FFFC0
1F9F80
ENDCHAR
STARTCHAR 0160
ENCODING 352
SWIDTH 411 0
DWIDTH 8 0
BBX 10 24 0 -3
BITMAP
3B80
4E40
4440
4040
60C0
71C0
3F80
1F40
1E40
20C0
21C0
21C0
2180
2100
2100
2100
2100
6100
C100
8300
8700
FE00
FE00
7800
ENDCHAR
STARTCHAR 0161
ENCODING 353
SWIDTH 411 0
DWIDTH 8 0
BBX 10 20 0 -3
BITMAP
3B80
4E40
4440
4040
60C0
71C0
3F80
1F40
0E40
10C0
11C0
11C0
1180
7100
C100
8300
8600
FE00
FC00
7800
ENDCHAR
STARTCHAR 0178
ENCODING 376
SWIDTH 514 0
DWIDTH 10 0
BBX 11 26 0 -3
BITMAP
3B80
6C40
4440
4440
6E40
7FC0
7FC0
3B80
71C0
8A20
8A20
8A20
8A20
8A20
8E20
8020
C020
E020
9E20
8E20
8E20
C060
E0E0
7FC0
3F80
1F00
ENDCHAR
STARTCHAR 017D
ENCODING 381
SWIDTH 462 0
DWIDTH 9 0
BBX 12 24 0 -3
BITMAP
3B80
4E40
4440
4040
60C0
71C0
3FE0
5F10
4E10
4030
7C30
7C70
3860
18E0
10C0
21C0
2180
4380
C3E0
8010
8010
FFF0
FFF0
7FE0
ENDCHAR
STARTCHAR 017E
ENCODING 382
SWIDTH 411 0
DWIDTH 8 0
BBX 11 20 0 -3
BITMAP
3B80
4E40
4440
4040
60C0
71C0
3FC0
5F20
4E20
4060
7860
70E0
31C0
61C0
C3E0
8020
8020
FFE0
FFE0
7FC0
ENDCHAR
STARTCHAR 0192
ENCODING 402
SWIDTH 462 0
DWIDTH 9 0
BBX 11 23 0 -8
BITMAP
03C0
0420
0820
1020
11E0
11E0
11C0
1100
3180
4040
4040
60C0
71C0
71C0
3180
1100
7100
8100
8300
8700
FE00
FC00
7800
ENDCHAR
STARTCHAR 02C6
ENCODING 710
SWIDTH 360 0
DWIDTH 7 0
BBX 9 9 0 11
BITMAP
1C00
2600
4300
8180
8080
8980
FF80
FF80
7F00
ENDCHAR
STARTCHAR 02C7
ENCODING 711
SWIDTH 360 0
DWIDTH 7 0
BBX 9 9 0 11
BITMAP
7700
9980
8880
8180
C380
E780
7F00
3E00
1C00
ENDCHAR
STARTCHAR 02C9
ENCODING 713
SWIDTH 565 0
DWIDTH 11 0
BBX 10 7 1 11
BITMAP
7F80
8040
8040
8080
FFC0
FFC0
7F80
ENDCHAR
STARTCHAR 02D8
ENCODING 728
SWIDTH 411 0
DWIDTH 8 0
BBX 8 9 1 10
BITMAP
7E
9A
89
83
83
C7
FE
7E
38
ENDCHAR
STARTCHAR 02D9
ENCODING 729
SWIDTH 411 0
DWIDTH 8 0
BBX 6 8 2 10
BITMAP
70
C8
84
84
8C
FC
F8
78
ENDCHAR
STARTCHAR 02DA
ENCODING 730
SWIDTH 257 0
DWIDTH 5 0
BBX 7 8 0 11
BITMAP
78
C4
82
92
C6
FE
FC
78
ENDCHAR
STARTCHAR 02DB
ENCODING 731
SWIDTH 462 0
DWIDTH 9 0
BBX 7 7 3 -7
BITMAP
E0
E0
E0
F0
7C
7E
3C
ENDCHAR
STARTCHAR 02DC
ENCODING 732
SWIDTH 360 0
DWIDTH 7 0
BBX 9 8 0 10
BITMAP
7F00
C900
8080
8080
9180
FF80
FF00
6E00
ENDCHAR
STARTCHAR 02DD
ENCODING 733
SWIDTH 925 0
DWIDTH 18 0
BBX 17 16 1 0
BITMAP
7FFF00
DFDF80
F6F780
EB6A80
ED4A80
DFFF80
BEFF80
FEFF80
C69880
B6D680
B65680
D51A80
FFFF80
F7FF80
D69C80
FFFF80
ENDCHAR
STARTCHAR 0394
ENCODING 916
SWIDTH 1080 0
DWIDTH 21 0
BBX 22 19 0 1
BITMAP
00FC00
01FF00
03FF80
07EFC0
0787E0
0703E0
0F01F0
7F00F0
7FC770
1E0070
3FC674
FC007C
7C00F8
3C00F8
7E31F0
3E03F0
3F33C0
0C8FC0
007800
ENDCHAR
STARTCHAR 03A9
ENCODING 937
SWIDTH 1080 0
DWIDTH 21 0
BBX 22 19 0 1
BITMAP
00FC00
01FF00
03FF80
07EFC0
0787E0
0703E0
0F01F0
7F00F0
7FC770
1E0070
3FC674
FC007C
7C00F8
3C00F8
7E31F0
3E03F0
3F33C0
0C8FC0
007800
ENDCHAR
STARTCHAR 03BC
ENCODING 956
SWIDTH 720 0
DWIDTH 14 0
BBX 15 19 0 -8
BITMAP
71C0
8A20
8A20
8A20
8A20
8A20
8A20
8C3C
8006
8002
8004
8FFE
8FFE
8FFC
8800
9800
F800
F000
7000
ENDCHAR
STARTCHAR 03C0
ENCODING 960
SWIDTH 514 0
DWIDTH 10 0
BBX 11 14 0 -3
BITMAP
7FC0
8020
8020
8020
E220
E220
6220
2220
2220
2220
2220
3FE0
3FE0
1FC0
ENDCHAR
STARTCHAR 2010
ENCODING 8208
SWIDTH 257 0
DWIDTH 5 0
BBX 6 8 0 1
BITMAP
78
CC
84
84
CC
FC
FC
78
ENDCHAR
STARTCHAR 2013
ENCODING 8211
SWIDTH 411 0
DWIDTH 8 0
BBX 10 7 0 0
BITMAP
7F80
80C0
8040
8080
FFC0
FFC0
7F80
ENDCHAR
STARTCHAR 2014
ENCODING 8212
SWIDTH 617 0
DWIDTH 12 0
BBX 14 7 0 0
BITMAP
7FF8
800C
8004
8008
FFFC
FFFC
7FF8
ENDCHAR
STARTCHAR 2018
ENCODING 8216
SWIDTH 257 0
DWIDTH 5 0
BBX 6 10 0 5
BITMAP
78
CC
84
84
84
84
CC
FC
FC
78
ENDCHAR
STARTCHAR 2019
ENCODING 8217
SWIDTH 257 0
DWIDTH 5 0
BBX 6 10 0 5
BITMAP
78
CC
84
84
84
84
CC
FC
FC
78
ENDCHAR
STARTCHAR 201A
ENCODING 8218
SWIDTH 257 0
DWIDTH 5 0
BBX 6 10 0 -6
BITMAP
78
CC
84
84
84
84
CC
FC
FC
78
ENDCHAR
STARTCHAR 201C
ENCODING 8220
SWIDTH 462 0
DWIDTH 9 0
BBX 10 10 0 5
BITMAP
7F80
8CC0
8840
8840
8840
8840
8CC0
FFC0
FFC0
7F80
ENDCHAR
STARTCHAR 201D
ENCODING 8221
SWIDTH 462 0
DWIDTH 9 0
BBX 10 10 0 5
BITMAP
7F80
8CC0
8840
8840
8840
8840
8CC0
FFC0
FFC0
7F80
ENDCHAR
STARTCHAR 201E
ENCODING 8222
SWIDTH 514 0
DWIDTH 10 0
BBX 11 10 0 -6
BITMAP
7BC0
CE60
8420
8420
8420
8420
CE60
FFE0
FFE0
7BC0
ENDCHAR
STARTCHAR 2020
ENCODING 8224
SWIDTH 1131 0
DWIDTH 22 0
BBX 22 19 1 1
BITMAP
00FC00
01FF00
03FF80
07FFC0
0787C0
0F03E0
1F01E0
7F00F0
FFCEF0
3E0060
7FC664
F800FC
7C00F8
7C01F8
FC31F0
7E0BE0
3F37C0
1D8F80
007000
ENDCHAR
STARTCHAR 2021
ENCODING 8225
SWIDTH 1080 0
DWIDTH 21 0
BBX 22 19 0 1
BITMAP
00FC00
01FF00
03FF80
07EFC0
0787E0
0703E0
0F01F0
7F00F0
7FC770
1E0070
3FC674
FC007C
7C00F8
3C00F8
7E31F0
3E03F0
3F33C0
0C8FC0
007800
ENDCHAR
STARTCHAR 2022
ENCODING 8226
SWIDTH 360 0
DWIDTH 7 0
BBX 8 9 0 1
BITMAP
3C
42
81
81
81
C3
FF
7E
3C
ENDCHAR
STARTCHAR 2026
ENCODING 8230
SWIDTH 720 0
DWIDTH 14 0
BBX 15 7 -1 -3
BITMAP
3BDC
4662
8442
4662
FFFE
7FFE
3BDC
ENDCHAR
STARTCHAR 2030
ENCODING 8240
SWIDTH 822 0
DWIDTH 16 0
BBX 17 21 0 -5
BITMAP
00F000
389800
C50800
831000
9B1800
9A3000
DE3000
FC7000
FC6000
3C7800
088C00
093400
093600
113300
118D80
11CC80
23ED00
23E180
3F7F80
3E3F00
1E1E00
ENDCHAR
STARTCHAR 2039
ENCODING 8249
SWIDTH 360 0
DWIDTH 7 0
BBX 7 11 0 -2
BITMAP
1C
22
42
86
8E
86
C2
E2
7E
3E
1C
ENDCHAR
STARTCHAR 203A
ENCODING 8250
SWIDTH 308 0
DWIDTH 6 0
BBX 7 11 0 -2
BITMAP
70
88
84
C2
E2
C2
86
8E
FC
F8
70
ENDCHAR
STARTCHAR 2044
ENCODING 8260
SWIDTH 462 0
DWIDTH 9 0
BBX 10 21 0 -5
BITMAP
0380
0440
0440
0440
08C0
08C0
08C0
1180
1180
3380
2300
2300
4700
4600
4600
8E00
8C00
8C00
F800
F800
7000
ENDCHAR
STARTCHAR 2122
ENCODING 8482
SWIDTH 668 0
DWIDTH 13 0
BBX 14 11 0 4
BITMAP
E000
A3F0
9E48
8404
9D24
9D24
9D24
C324
FFFC
FFFC
7CD8
ENDCHAR
STARTCHAR 2126
ENCODING 8486
SWIDTH 1080 0
DWIDTH 21 0
BBX 22 19 0 1
BITMAP
00FC00
01FF00
03FF80
07EFC0
0787E0
0703E0
0F01F0
7F00F0
7FC770
1E0070
3FC674
FC007C
7C00F8
3C00F8
7E31F0
3E03F0
3F33C0
0C8FC0
007800
ENDCHAR
STARTCHAR 2202
ENCODING 8706
SWIDTH 1080 0
DWIDTH 21 0
BBX 22 19 0 1
BITMAP
00FC00
01FF00
03FF80
07EFC0
0787E0
0703E0
0F01F0
7F00F0
7FC770
1E0070
3FC674
FC007C
7C00F8
3C00F8
7E31F0
3E03F0
3F33C0
0C8FC0
007800
ENDCHAR
STARTCHAR 2206
ENCODING 8710
SWIDTH 1080 0
DWIDTH 21 0
BBX 22 19 0 1
BITMAP
00FC00
01FF00
03FF80
07EFC0
0787E0
0703E0
0F01F0
7F00F0
7FC770
1E0070
3FC674
FC007C
7C00F8
3C00F8
7E31F0
3E03F0
3F33C0
0C8FC0
007800
ENDCHAR
STARTCHAR 220F
ENCODING 8719
SWIDTH 514 0
DWIDTH 10 0
BBX 11 18 0 -3
BITMAP
7FC0
8020
8020
8020
E220
E220
6220
2220
2220
2220
2220
2220
2220
2220
2220
3FE0
3FE0
1FC0
ENDCHAR
STARTCHAR 2211
ENCODING 8721
SWIDTH 1080 0
DWIDTH 21 0
BBX 22 19 0 1
BITMAP
00FC00
01FF00
03FF80
07EFC0
0787E0
0703E0
0F01F0
7F00F0
7FC770
1E0070
3FC674
FC007C
7C00F8
3C00F8
7E31F0
3E03F0
3F33C0
0C8FC0
007800
ENDCHAR
STARTCHAR 2219
ENCODING 8729
SWIDTH 257 0
DWIDTH 5 0
BBX 6 7 0 -3
BITMAP
78
CC
84
44
FC
FC
78
ENDCHAR
STARTCHAR 221A
ENCODING 8730
SWIDTH 1080 0
DWIDTH 21 0
BBX 22 19 0 1
BITMAP
00FC00
01FF00
03FF80
07EFC0
0787E0
0703E0
0F01F0
7F00F0
7FC770
1E0070
3FC674
FC007C
7C00F8
3C00F8
7E31F0
3E03F0
3F33C0
0C8FC0
007800
ENDCHAR
STARTCHAR 221E
ENCODING 8734
SWIDTH 925 0
DWIDTH 18 0
BBX 17 16 1 0
BITMAP
402000
002000
5BEB80
6AB280
5FAB80
400000
070000
070000
776700
CF3C80
CF9C80
6EE680
000000
000000
CAF600
D97500
ENDCHAR
STARTCHAR 222B
ENCODING 8747
SWIDTH 411 0
DWIDTH 8 0
BBX 13 23 -3 -8
BITMAP
01F0
0208
0408
0810
08F8
08F8
08F0
0880
0880
0880
0880
0880
0880
0880
0880
0880
7880
8080
8180
8380
FF00
FE00
7C00
ENDCHAR
STARTCHAR 2248
ENCODING 8776
SWIDTH 617 0
DWIDTH 12 0
BBX 13 24 0 -13
BITMAP
1F00
30C0
4060
8020
8710
8F90
8F90
8F90
8390
C090
F090
7F90
7010
C030
8070
87E0
8FE0
8FC0
8FF0
C008
E008
7FF8
3FF8
1FF0
ENDCHAR
STARTCHAR 2260
ENCODING 8800
SWIDTH 1080 0
DWIDTH 21 0
BBX 22 19 0 1
BITMAP
00FC00
01FF00
03FF80
07EFC0
0787E0
0703E0
0F01F0
7F00F0
7FC770
1E0070
3FC674
FC007C
7C00F8
3C00F8
7E31F0
3E03F0
3F33C0
0C8FC0
007800
ENDCHAR
STARTCHAR 2264
ENCODING 8804
SWIDTH 360 0
DWIDTH 7 0
BBX 8 14 0 -3
BITMAP
0E
13
21
42
43
62
73
7E
81
81
81
FF
FF
7E
ENDCHAR
STARTCHAR 2265
ENCODING 8805
SWIDTH 360 0
DWIDTH 7 0
BBX 8 14 0 -3
BITMAP
38
4C
42
61
61
42
4F
7E
81
81
81
FF
FF
7E
ENDCHAR
STARTCHAR 22F2
ENCODING 8946
SWIDTH 617 0
DWIDTH 12 0
BBX 13 24 0 -13
BITMAP
1F00
30C0
4060
8020
8710
8F90
8F90
8F90
8390
C090
F090
7F90
7010
C030
8070
87E0
8FE0
8FC0
8FF0
C008
E008
7FF8
3FF8
1FF0
ENDCHAR
STARTCHAR 25CA
ENCODING 9674
SWIDTH 1080 0
DWIDTH 21 0
BBX 22 19 0 1
BITMAP
00FC00
01FF00
03FF80
07EFC0
0787E0
0703E0
0F01F0
7F00F0
7FC770
1E0070
3FC674
FC007C
7C00F8
3C00F8
7E31F0
3E03F0
3F33C0
0C8FC0
007800
ENDCHAR
STARTCHAR F001
ENCODING 61441
SWIDTH 771 0
DWIDTH 15 0
BBX 16 18 0 -3
BITMAP
1F1E
21B3
4061
8073
8E3F
8E23
8E62
8FE2
8022
8022
8022
8FE2
8FE2
8FE2
8822
F83E
F83E
701C
ENDCHAR
STARTCHAR F002
ENCODING 61442
SWIDTH 720 0
DWIDTH 14 0
BBX 15 18 0 -3
BITMAP
1F1C
21A2
4062
8062
8E22
8E22
8E62
8FE2
8022
8022
8022
8FE2
8FE2
8FE2
8822
F83E
F83E
701C
ENDCHAR
ENDFONT
